<mxfile host="app.diagrams.net" modified="2023-10-25T08:06:16.615Z" agent="Mozilla/5.0 (Windows NT 10.0; Win64; x64) AppleWebKit/537.36 (KHTML, like Gecko) Chrome/117.0.0.0 Safari/537.36 OPR/103.0.0.0" version="22.0.7" etag="4S1QprmvPAo6cs3NbdWO" type="github">
  <diagram name="Sayfa -1" id="0E8UkuWTqRHteF2VPHtN">
    <mxGraphModel>
      <root>
        <mxCell id="0" />
        <mxCell id="1" parent="0" />
      </root>
    </mxGraphModel>
  </diagram>
</mxfile>
